<svg xmlns="http://www.w3.org/2000/svg" viewBox="0 0 800 800" width="800" height="800" role="img" aria-label="Illustration of Sample Party Speaker 40W with RGB">
  <rect width="800" height="800" fill="#FFFFFF"/>
  
    <ellipse cx="400" cy="618" rx="205" ry="20" fill="#000" opacity=".07"/>
    <rect x="150" y="280" width="500" height="300" rx="60" fill="#3A3A42"/>
    <rect x="172" y="302" width="456" height="256" rx="44" fill="#26262C"/>
    <circle cx="268" cy="430" r="84" fill="#33333B"/><circle cx="268" cy="430" r="62" fill="#22222A"/><circle cx="268" cy="430" r="24" fill="#5A5A64"/>
    <circle cx="532" cy="430" r="84" fill="#33333B"/><circle cx="532" cy="430" r="62" fill="#22222A"/><circle cx="532" cy="430" r="24" fill="#5A5A64"/>
    <rect x="376" y="386" width="48" height="88" rx="12" fill="#2A2A32"/>
    <g opacity=".55"><circle cx="392" cy="404" r="3.5" fill="#55555F"/><circle cx="408" cy="404" r="3.5" fill="#55555F"/><circle cx="392" cy="420" r="3.5" fill="#55555F"/><circle cx="408" cy="420" r="3.5" fill="#55555F"/><circle cx="392" cy="436" r="3.5" fill="#55555F"/><circle cx="408" cy="436" r="3.5" fill="#55555F"/><circle cx="392" cy="452" r="3.5" fill="#55555F"/><circle cx="408" cy="452" r="3.5" fill="#55555F"/></g>
    <path d="M300 280 Q400 196 500 280" fill="none" stroke="#5A5A64" stroke-width="22" stroke-linecap="round" stroke-linejoin="round"/>
    <rect x="150" y="552" width="500" height="28" rx="14" fill="#5A5A64"/>
    <rect x="196" y="560" width="408" height="10" rx="5" fill="#F3D74B"/>
</svg>
