<svg xmlns="http://www.w3.org/2000/svg" viewBox="0 0 800 800" width="800" height="800" role="img" aria-label="Sample Magnetic Phone Cooling Fan — sample product image">
  <rect width="800" height="800" fill="#1da4bb"/>
  <path d="M0 470 800 300V800H0Z" fill="#0f5763" fill-opacity=".55"/>
  <circle cx="400" cy="322" r="188" fill="#45cbe2" fill-opacity=".18"/>
  <circle cx="400" cy="322" r="188" fill="none" stroke="#fff" stroke-opacity=".30" stroke-width="3"/>
  <circle cx="400" cy="322" r="150" fill="none" stroke="#fff" stroke-opacity=".14" stroke-width="2"
          stroke-dasharray="10 14"/>
  <g transform="translate(280 210) scale(10)" color="#ffffff"
     stroke-width="1.35" opacity=".95"><path d="M12 3.5a8.5 8.5 0 1 1 0 17 8.5 8.5 0 0 1 0-17Z" fill="none" stroke="currentColor" stroke-width="1.6" stroke-linecap="round" stroke-linejoin="round"/><path d="M12 9.5a2.5 2.5 0 1 1 0 5 2.5 2.5 0 0 1 0-5Z" fill="none" stroke="currentColor" stroke-width="1.6" stroke-linecap="round" stroke-linejoin="round"/><path d="M12 9.5V4M12 19.5V14.5M9.8 10.8 5.5 8.5M18.5 15.5l-4.3-2.3M9.8 13.2 5.5 15.5M18.5 8.5l-4.3 2.3" fill="none" stroke="currentColor" stroke-width="1.6" stroke-linecap="round" stroke-linejoin="round"/></g>
  <text x="400" y="700" text-anchor="middle" font-size="22" font-weight="600"
        fill="#fff" opacity=".62" letter-spacing="5" font-family="Space Grotesk, Inter, Segoe UI, Roboto, Helvetica, Arial, sans-serif">SAMPLE IMAGE</text>
  <g font-family="Space Grotesk, Inter, Segoe UI, Roboto, Helvetica, Arial, sans-serif"><text x="400" y="592" text-anchor="middle" font-size="34"
       font-weight="700" fill="#fff" opacity=".97">Sample Magnetic</text><text x="400" y="638" text-anchor="middle" font-size="34"
       font-weight="700" fill="#fff" opacity=".97">Phone Cooling Fan</text></g>
</svg>
