<svg xmlns="http://www.w3.org/2000/svg" viewBox="0 0 800 800" width="800" height="800" role="img" aria-label="Sample Adjustable Phone Holder — sample product image">
  <rect width="800" height="800" fill="#8f48d2"/>
  <path d="M0 470 800 300V800H0Z" fill="#4c266f" fill-opacity=".55"/>
  <circle cx="400" cy="322" r="188" fill="#b670f8" fill-opacity=".18"/>
  <circle cx="400" cy="322" r="188" fill="none" stroke="#fff" stroke-opacity=".30" stroke-width="3"/>
  <circle cx="400" cy="322" r="150" fill="none" stroke="#fff" stroke-opacity=".14" stroke-width="2"
          stroke-dasharray="10 14"/>
  <g transform="translate(280 210) scale(10)" color="#ffffff"
     stroke-width="1.35" opacity=".95"><path d="M7.5 2.5h9a1 1 0 0 1 1 1v17a1 1 0 0 1-1 1h-9a1 1 0 0 1-1-1v-17a1 1 0 0 1 1-1Z" fill="none" stroke="currentColor" stroke-width="1.6" stroke-linecap="round" stroke-linejoin="round"/><path d="M10.5 5h3" fill="none" stroke="currentColor" stroke-width="1.6" stroke-linecap="round" stroke-linejoin="round"/><path d="M12 18h.01" fill="none" stroke="currentColor" stroke-width="1.6" stroke-linecap="round" stroke-linejoin="round"/></g>
  <text x="400" y="700" text-anchor="middle" font-size="22" font-weight="600"
        fill="#fff" opacity=".62" letter-spacing="5" font-family="Space Grotesk, Inter, Segoe UI, Roboto, Helvetica, Arial, sans-serif">SAMPLE IMAGE</text>
  <g font-family="Space Grotesk, Inter, Segoe UI, Roboto, Helvetica, Arial, sans-serif"><text x="400" y="592" text-anchor="middle" font-size="34"
       font-weight="700" fill="#fff" opacity=".97">Sample Adjustable</text><text x="400" y="638" text-anchor="middle" font-size="34"
       font-weight="700" fill="#fff" opacity=".97">Phone Holder</text></g>
</svg>
