<svg xmlns="http://www.w3.org/2000/svg" viewBox="0 0 800 800" width="800" height="800" role="img" aria-label="Sample Adjustable Phone Holder — sample product image">
  <rect width="800" height="800" fill="#0A0B0F"/>
  <rect width="800" height="800" fill="#A855F7" fill-opacity=".10"/>
  <rect y="0" width="800" height="10" fill="#A855F7"/>
  <circle cx="400" cy="330" r="188" fill="#A855F7" fill-opacity=".16"/>
  <circle cx="400" cy="330" r="188" fill="none" stroke="#A855F7" stroke-opacity=".55" stroke-width="3"/>
  <circle cx="400" cy="330" r="150" fill="none" stroke="#fff" stroke-opacity=".10" stroke-width="2"
          stroke-dasharray="10 14"/>
  <g transform="translate(280 210) scale(10)" color="#ffffff"
     stroke-width="1.35" opacity=".95"><path d="M7.5 2.5h9a1 1 0 0 1 1 1v17a1 1 0 0 1-1 1h-9a1 1 0 0 1-1-1v-17a1 1 0 0 1 1-1Z" fill="none" stroke="currentColor" stroke-width="1.6" stroke-linecap="round" stroke-linejoin="round"/><path d="M10.5 5h3" fill="none" stroke="currentColor" stroke-width="1.6" stroke-linecap="round" stroke-linejoin="round"/><path d="M12 18h.01" fill="none" stroke="currentColor" stroke-width="1.6" stroke-linecap="round" stroke-linejoin="round"/></g>
  <g transform="translate(24 736) scale(0.34)" fill="#FFE01A" color="#FFE01A"><rect x="0" y="0" width="22" height="100"/><path d="M 82 0 L 42 50 L 82 100" fill="none"
         stroke="currentColor" stroke-width="22"
         stroke-linecap="butt" stroke-linejoin="miter"/></g>
  <text x="70" y="768" font-family="ui-monospace, SFMono-Regular, Menlo, monospace"
        font-size="19" letter-spacing="4" fill="#6E7687">SAMPLE IMAGE</text>
  <g font-family="Space Grotesk, Inter, Segoe UI, Roboto, Helvetica, Arial, sans-serif"><text x="400" y="606" text-anchor="middle" font-size="33"
       font-weight="700" fill="#fff">Sample Adjustable</text><text x="400" y="650" text-anchor="middle" font-size="33"
       font-weight="700" fill="#fff">Phone Holder</text></g>
</svg>
